<svg width="50" height="50" viewBox="0 0 50 50" fill="none" xmlns="http://www.w3.org/2000/svg">
<rect width="50" height="50" fill="#0070F3"/>
<path d="M17.96 37C17.72 37 17.516 36.928 17.348 36.784C17.204 36.616 17.132 36.412 17.132 36.172V12.628C17.132 12.388 17.204 12.196 17.348 12.052C17.516 11.884 17.72 11.8 17.96 11.8H19.868C20.108 11.8 20.3 11.884 20.444 12.052C20.612 12.196 20.696 12.388 20.696 12.628V33.868H32.648C32.912 33.868 33.116 33.952 33.26 34.12C33.428 34.264 33.512 34.468 33.512 34.732V36.172C33.512 36.412 33.428 36.616 33.26 36.784C33.092 36.928 32.888 37 32.648 37H17.96Z" fill="#FDFDFD"/>
</svg>
